<?xml version='1.0' encoding='iso-8859-1'?>
<svg version="1.1" xmlns="http://www.w3.org/2000/svg" viewBox="0 0 19.692 19.692" xmlns:xlink="http://www.w3.org/1999/xlink" enable-background="new 0 0 19.692 19.692">
  <g>
    <path d="m18.458,1.265l.378-.438c0.28-0.324 0.05-0.827-0.378-0.827h-17.816c-0.428,0-0.658,0.503-0.378,0.827l5.307,6.146c0.204,0.237 0.35,0.518 0.426,0.822l1.493,5.966c0.04,0.159 0.06,0.322 0.06,0.485v4.945c0,0.372 0.391,0.613 0.724,0.447l3-1.5c0.169-0.085 0.276-0.258 0.276-0.447v-3.445c0-0.163 0.02-0.326 0.06-0.485l1.49-5.966c0.043-0.173 0.115-0.336 0.202-0.491 0.641,0.439 1.415,0.696 2.248,0.696 2.206,0 4-1.794 4-4 0-1.059-0.418-2.019-1.092-2.735zm-2.908,4.735c-0.35,0-0.674-0.098-0.961-0.257l2.547-2.948c0.256,0.336 0.414,0.751 0.414,1.205 0,1.103-0.897,2-2,2z"/>
  </g>
</svg>
