<?xml version="1.0" encoding="iso-8859-1"?>
<!-- Generator: Adobe Illustrator 18.1.1, SVG Export Plug-In . SVG Version: 6.00 Build 0)  -->
<svg version="1.1" id="Capa_1" xmlns="http://www.w3.org/2000/svg" xmlns:xlink="http://www.w3.org/1999/xlink" x="0px" y="0px"
	 viewBox="0 0 42.736 42.736" style="enable-background:new 0 0 42.736 42.736;" xml:space="preserve">
<g>
	<g id="b189_utensil">
		<path style="fill:#030104;" d="M34.427,21.367v-1.781h7.05l-0.226-2.559c0-1.965-1.594-3.561-3.562-3.561H25.226
			c-1.967,0-3.563,1.596-3.563,3.561l-0.649,7.42h-0.832V13.766c0-0.334-0.048-0.658-0.135-0.967h1.139V8.941h4.041V3.748H10.759
			v5.193h1.001v3.857h1.14c-0.087,0.309-0.138,0.633-0.138,0.967v10.977c0,0.035,0.005,0.066,0.005,0.102
			c0,1.941,0.134,2.887-1.264,4.469c-0.689-0.494-1.439-0.723-2.207-0.848c-0.881-0.117-1.804-0.047-2.735,0.316
			c-0.462,0.186-0.929,0.453-1.351,0.846c-0.419,0.387-0.784,0.926-0.938,1.533c-0.155,0.604-0.091,1.211,0.124,1.689
			c0.021,0.049,0.05,0.092,0.074,0.137H0c0,0.133,0.009,0.262,0.018,0.389h4.699c0.111,0.143,0.229,0.273,0.367,0.387H0.061
			c0.286,1.99,1.666,3.627,3.512,4.287v0.287H7.18v-0.287c1.847-0.66,3.226-2.297,3.515-4.287H5.449
			c0.047-0.137,0.092-0.266,0.138-0.387h5.147c0.012-0.127,0.018-0.256,0.018-0.389H5.743c0.034-0.074,0.069-0.146,0.108-0.217
			c0.168-0.314,0.354-0.512,0.538-0.629c0.182-0.117,0.348-0.195,0.556-0.293c0.205-0.098,0.446-0.203,0.722-0.312
			c0.547-0.223,1.195-0.455,1.89-0.756c0.297-0.135,0.603-0.273,0.917-0.432c-0.569,0.521-1.276,1.115-2.163,1.816h12.026
			l-0.156,1.779c0,1.969,1.595,3.559,3.562,3.559v1.488h3.56V37.5h7.421v1.488h3.561V37.5h0.892c1.965,0,3.559-1.59,3.559-3.559
			l-0.233-2.67h-8.074V29.49h7.919l-0.304-3.463h-7.615v-1.78h7.459l-0.254-2.881H34.427z"/>
	</g>
</g>
<g>
</g>
<g>
</g>
<g>
</g>
<g>
</g>
<g>
</g>
<g>
</g>
<g>
</g>
<g>
</g>
<g>
</g>
<g>
</g>
<g>
</g>
<g>
</g>
<g>
</g>
<g>
</g>
<g>
</g>
</svg>
