<?xml version="1.0" encoding="iso-8859-1"?>
<!-- Generator: Adobe Illustrator 18.1.1, SVG Export Plug-In . SVG Version: 6.00 Build 0)  -->
<svg version="1.1" id="Capa_1" xmlns="http://www.w3.org/2000/svg" xmlns:xlink="http://www.w3.org/1999/xlink" x="0px" y="0px"
	 viewBox="0 0 42.176 42.176" style="enable-background:new 0 0 42.176 42.176;" xml:space="preserve">
<g>
	<g id="b173_coffee">
		<path d="M21.568,10.229c-2.369,2.369-4.153,4.994-5.274,7.557c0.386-0.014,0.771-0.027,1.163-0.027
			c0.637,0,1.264,0.027,1.881,0.066c0.73-1.018,1.607-1.973,2.713-2.768c0.729-0.525,1.576-0.951,2.498-1.223
			c0.922-0.266,1.917-0.338,2.869-0.23c0.237,0.027,0.473,0.07,0.703,0.121c0.115,0.023,0.231,0.051,0.344,0.082l0.287,0.074
			c0.273,0.072,0.584,0.129,0.869,0.16c0.58,0.068,1.145,0.027,1.698-0.111c1.109-0.268,2.183-1.012,3.138-2
			c0.957-0.992,1.797-2.197,2.564-3.473c0.738-1.23,1.407-2.527,2.058-3.875C34.875,2.073,27.439,4.358,21.568,10.229z"/>
		<path d="M40.253,5.497c-0.333-0.336-0.7-0.621-1.1-0.865c-0.027,1.498-0.288,2.982-0.701,4.443
			c-0.45,1.527-1.091,3.035-2.062,4.43c-0.487,0.691-1.065,1.354-1.765,1.932c-0.691,0.584-1.518,1.062-2.43,1.373
			c-0.91,0.312-1.899,0.414-2.844,0.354c-0.476-0.037-0.924-0.113-1.392-0.227l-0.271-0.068c-0.07-0.02-0.143-0.033-0.215-0.049
			c-0.143-0.029-0.287-0.051-0.428-0.066c-1.133-0.146-2.246,0.145-3.336,0.803c-0.341,0.205-0.675,0.449-1.002,0.713
			c5.637,1.121,9.921,4.004,11.025,7.547c0.607-0.506,1.203-1.053,1.785-1.633C41.986,17.716,44.107,9.35,40.253,5.497z"/>
		<path d="M39.079,4.583c0.024,0.014,0.049,0.033,0.074,0.049c0.003-0.076,0.011-0.15,0.011-0.225
			C39.137,4.466,39.106,4.522,39.079,4.583z"/>
		<path d="M8.417,22.911c1.585-0.385,3.29-0.578,5.069-0.289c0.889,0.146,1.787,0.447,2.631,0.902
			c0.839,0.469,1.596,1.123,2.193,1.869c0.146,0.188,0.285,0.383,0.413,0.582c0.063,0.1,0.125,0.199,0.184,0.301l0.149,0.256
			c0.143,0.246,0.322,0.504,0.502,0.727c0.361,0.461,0.789,0.83,1.279,1.125c0.973,0.594,2.258,0.826,3.634,0.803
			c1.378-0.021,2.823-0.283,4.27-0.645c1.388-0.346,2.78-0.789,4.194-1.283c-1.197-4.748-8.073-8.385-16.377-8.385
			c-8.141,0-14.903,3.498-16.293,8.109c1.127-0.924,2.367-1.697,3.668-2.375C5.34,23.891,6.83,23.3,8.417,22.911z"/>
		<path d="M24.727,31.667c-0.838,0.145-1.715,0.205-2.615,0.119c-0.901-0.078-1.826-0.322-2.689-0.75
			c-0.865-0.424-1.636-1.049-2.26-1.76c-0.312-0.365-0.572-0.734-0.823-1.146l-0.144-0.236c-0.036-0.064-0.078-0.125-0.119-0.188
			c-0.081-0.119-0.168-0.238-0.256-0.352c-0.697-0.9-1.689-1.484-2.924-1.789c-1.23-0.305-2.64-0.322-4.068-0.205
			c-1.432,0.119-2.895,0.383-4.367,0.707c-1.401,0.307-2.807,0.678-4.24,1.066C0.077,27.657,0,28.19,0,28.737
			c0,5.447,7.414,9.865,16.559,9.865c9.148,0,16.562-4.418,16.562-9.865c0-0.473-0.058-0.936-0.167-1.391
			c-1.078,1.039-2.313,1.906-3.639,2.646C27.918,30.755,26.398,31.368,24.727,31.667z"/>
		<path d="M0,27.194c0.074-0.02,0.146-0.039,0.221-0.061c0.014-0.047,0.029-0.1,0.045-0.15C0.178,27.055,0.086,27.122,0,27.194z"/>
		<path d="M32.936,27.259c0.008,0.029,0.012,0.059,0.018,0.088c0.055-0.053,0.113-0.1,0.167-0.152
			C33.059,27.218,32.995,27.235,32.936,27.259z"/>
	</g>
	<g id="Capa_1_200_">
	</g>
</g>
<g>
</g>
<g>
</g>
<g>
</g>
<g>
</g>
<g>
</g>
<g>
</g>
<g>
</g>
<g>
</g>
<g>
</g>
<g>
</g>
<g>
</g>
<g>
</g>
<g>
</g>
<g>
</g>
<g>
</g>
</svg>
