<?xml version='1.0' encoding='iso-8859-1'?>
<!DOCTYPE svg PUBLIC '-//W3C//DTD SVG 1.1//EN' 'http://www.w3.org/Graphics/SVG/1.1/DTD/svg11.dtd'>
<svg version="1.1" xmlns="http://www.w3.org/2000/svg" viewBox="0 0 297 297" xmlns:xlink="http://www.w3.org/1999/xlink" enable-background="new 0 0 297 297">
  <g>
    <path d="m127.583,68.358v10.722h158.675c0.007,0.001 0.016,0.001 0.021,0 5.921,0 10.721-4.801 10.721-10.722 0-0.252-0.009-0.501-0.025-0.749-0.4-34.832-28.861-63.042-63.787-63.042h-145.116c23.399,11.706 39.511,35.896 39.511,63.791z"/>
    <path d="m250.878,114.46c5.921,0 10.721-4.801 10.721-10.722v-10.184h-56.822v10.185c0,5.921 4.801,10.722 10.721,10.722h35.38z"/>
    <path d="m197.808,188.973c0,17.143 13.948,31.092 31.092,31.092h8.576c17.144,0 31.092-13.948 31.092-31.092v-57.358h-70.76v57.358z"/>
    <path d="m127.515,292.433h158.743c5.921,0 10.722-4.8 10.722-10.721v-53.07c0-5.921-4.801-10.722-10.722-10.722h-12.095c-8.429,11.066-21.734,18.227-36.687,18.227h-8.576c-14.952,0-28.259-7.16-36.688-18.227h-64.697v74.513z"/>
    <path d="m180.117,146.624h2.681v-15.01h-2.681c-13.893,0-25.195,11.302-25.195,25.194 0,13.893 11.303,25.195 25.195,25.195h2.681v-15.01h-2.681c-5.616,0-10.186-4.569-10.186-10.186 0.001-5.614 4.57-10.183 10.186-10.183z"/>
    <path d="m56.287,12.072c-31.037,0-56.287,25.25-56.287,56.286v98.1h112.573v-98.1c0-31.036-25.25-56.286-56.286-56.286zm7.575,116.936c-1.993,1.995-4.759,3.143-7.579,3.143-2.819,0-5.585-1.148-7.58-3.143-1.994-1.993-3.141-4.76-3.141-7.579 0-2.819 1.146-5.586 3.141-7.58 1.995-1.995 4.761-3.141 7.58-3.141 2.82,0 5.586,1.146 7.579,3.141 2.006,1.994 3.143,4.761 3.143,7.58 0,2.819-1.137,5.586-3.143,7.579zm0-35.38c-1.993,1.994-4.759,3.142-7.579,3.142-2.819,0-5.585-1.147-7.58-3.142-1.994-1.993-3.141-4.76-3.141-7.579 0-2.819 1.146-5.586 3.141-7.58 1.995-1.995 4.761-3.142 7.58-3.142 2.83,0 5.586,1.146 7.579,3.142 2.006,1.994 3.143,4.761 3.143,7.58 0,2.819-1.137,5.586-3.143,7.579z"/>
    <path d="m0,289.217c0,1.773 1.442,3.216 3.217,3.216h106.14c1.774,0 3.217-1.442 3.217-3.216v-106.677h-112.574v106.677zm77.157-39.973c-1.673,1.669-3.865,2.504-6.056,2.504-2.199,0-4.397-0.841-6.073-2.521-2.336-2.342-5.441-3.633-8.743-3.633-3.301,0-6.406,1.291-8.742,3.633-3.347,3.355-8.778,3.361-12.129,0.018-3.354-3.345-3.362-8.775-0.019-12.129 5.579-5.595 12.998-8.676 20.89-8.676 7.892,0 15.312,3.081 20.891,8.676 3.344,3.353 3.336,8.783-0.019,12.128zm-58.057-30.406c9.932-9.961 23.139-15.448 37.188-15.448 0.001,0 0,0 0.001,0 14.048,0.001 27.254,5.487 37.184,15.45 3.345,3.355 3.336,8.785-0.02,12.129-1.673,1.668-3.864,2.503-6.055,2.503-2.2,0-4.398-0.841-6.075-2.522-6.689-6.709-15.578-10.404-25.034-10.405-9.458,0-18.35,3.696-25.039,10.406-3.346,3.354-8.775,3.363-12.131,0.019-3.355-3.346-3.364-8.776-0.019-12.132z"/>
  </g>
</svg>
