<?xml version="1.0" encoding="iso-8859-1"?>
<!-- Generator: Adobe Illustrator 18.1.1, SVG Export Plug-In . SVG Version: 6.00 Build 0)  -->
<svg version="1.1" id="Capa_1" xmlns="http://www.w3.org/2000/svg" xmlns:xlink="http://www.w3.org/1999/xlink" x="0px" y="0px"
	 viewBox="0 0 18.491 18.491" style="enable-background:new 0 0 18.491 18.491;" xml:space="preserve">
<g>
	<g>
		<path style="fill:#030104;" d="M11.204,3.951c0.015-0.075,0.027-0.15,0.027-0.229c0-0.773-0.737-1.4-1.647-1.4
			c-0.909,0-1.646,0.627-1.646,1.4c0,0.079,0.013,0.154,0.028,0.229C6.819,4.277,5.817,4.944,5.068,5.829h9.034
			C13.352,4.944,12.351,4.278,11.204,3.951z"/>
		<path style="fill:#030104;" d="M17.066,6.548c-0.844-0.42-1.846-0.283-2.699,0.266H4.784c-0.617,0.857-1.011,1.885-1.095,3
			C3.585,9.546,3.537,9.21,3.562,8.786c0.07-1.178-0.236-2.092-0.911-2.719C1.615,5.105,0.161,5.265,0,5.287
			c0,0,0.542,0.809,0.208,1.567c0,0,0.869-0.091,1.366,0.371c0.312,0.29,0.449,0.783,0.409,1.467
			C1.912,9.887,2.22,10.803,2.9,11.414c0.322,0.29,0.683,0.466,1.03,0.573c0.74,2.421,2.991,4.182,5.653,4.182
			c2.245,0,4.197-1.251,5.199-3.093c1.229,0.104,2.567-0.712,3.266-2.112C18.913,9.23,18.471,7.249,17.066,6.548z M16.633,10.259
			c-0.288,0.578-0.771,0.978-1.242,1.102c0.067-0.358,0.106-0.727,0.106-1.104c0-0.709-0.13-1.386-0.36-2.015
			c0.391-0.256,0.821-0.339,1.167-0.167C16.919,8.382,17.071,9.382,16.633,10.259z"/>
	</g>
</g>
<g>
</g>
<g>
</g>
<g>
</g>
<g>
</g>
<g>
</g>
<g>
</g>
<g>
</g>
<g>
</g>
<g>
</g>
<g>
</g>
<g>
</g>
<g>
</g>
<g>
</g>
<g>
</g>
<g>
</g>
</svg>
